<mxfile host="app.diagrams.net" agent="Mozilla/5.0 (X11; Linux x86_64) AppleWebKit/537.36 (KHTML, like Gecko) Chrome/130.0.0.0 Safari/537.36" version="24.8.3">
  <diagram name="Page-1" id="KAhTmsJiSFtmm6LwYsKF">
    <mxGraphModel dx="1348" dy="-263" grid="1" gridSize="10" guides="1" tooltips="1" connect="1" arrows="1" fold="1" page="1" pageScale="1" pageWidth="850" pageHeight="1100" math="0" shadow="0">
      <root>
        <mxCell id="0" />
        <mxCell id="1" parent="0" />
        <mxCell id="oEE4H29s-iGU_zrN4cX3-1" value="2. Who can &lt;br&gt;perform service?" style="edgeStyle=orthogonalEdgeStyle;rounded=0;orthogonalLoop=1;jettySize=auto;html=1;exitX=1;exitY=0.25;exitDx=0;exitDy=0;entryX=0;entryY=0.25;entryDx=0;entryDy=0;" edge="1" parent="1" source="oEE4H29s-iGU_zrN4cX3-4" target="oEE4H29s-iGU_zrN4cX3-12">
          <mxGeometry relative="1" as="geometry" />
        </mxCell>
        <mxCell id="oEE4H29s-iGU_zrN4cX3-2" value="3. Performer C&amp;nbsp;&lt;br&gt;Assigned" style="edgeStyle=orthogonalEdgeStyle;rounded=0;orthogonalLoop=1;jettySize=auto;html=1;exitX=1;exitY=0.75;exitDx=0;exitDy=0;entryX=0;entryY=0.75;entryDx=0;entryDy=0;endArrow=none;endFill=0;startArrow=classic;startFill=1;" edge="1" parent="1" source="oEE4H29s-iGU_zrN4cX3-4" target="oEE4H29s-iGU_zrN4cX3-12">
          <mxGeometry relative="1" as="geometry" />
        </mxCell>
        <mxCell id="oEE4H29s-iGU_zrN4cX3-3" value="4. Share Additional Info&lt;br&gt;(could be query or could be push)" style="edgeStyle=orthogonalEdgeStyle;rounded=0;orthogonalLoop=1;jettySize=auto;html=1;exitX=0.75;exitY=1;exitDx=0;exitDy=0;entryX=0;entryY=0.5;entryDx=0;entryDy=0;startArrow=classic;startFill=1;" edge="1" parent="1" source="oEE4H29s-iGU_zrN4cX3-4" target="oEE4H29s-iGU_zrN4cX3-5">
          <mxGeometry relative="1" as="geometry" />
        </mxCell>
        <mxCell id="oEE4H29s-iGU_zrN4cX3-4" value="&lt;b&gt;Requestor&lt;/b&gt;" style="rounded=1;whiteSpace=wrap;html=1;fillColor=#d5e8d4;strokeColor=#82b366;" vertex="1" parent="1">
          <mxGeometry x="176.97" y="1340" width="140" height="120" as="geometry" />
        </mxCell>
        <mxCell id="oEE4H29s-iGU_zrN4cX3-5" value="&lt;b&gt;Potential Performer C&lt;/b&gt;" style="rounded=1;whiteSpace=wrap;html=1;fillColor=#b1ddf0;strokeColor=#10739e;" vertex="1" parent="1">
          <mxGeometry x="519.97" y="1489" width="140" height="120" as="geometry" />
        </mxCell>
        <mxCell id="oEE4H29s-iGU_zrN4cX3-6" value="&lt;b&gt;Potential Performer B&lt;/b&gt;" style="rounded=1;whiteSpace=wrap;html=1;fillColor=#b1ddf0;strokeColor=#10739e;" vertex="1" parent="1">
          <mxGeometry x="582.97" y="1340" width="140" height="120" as="geometry" />
        </mxCell>
        <mxCell id="oEE4H29s-iGU_zrN4cX3-7" value="&lt;b&gt;Potential Performer A&lt;/b&gt;" style="rounded=1;whiteSpace=wrap;html=1;fillColor=#b1ddf0;strokeColor=#10739e;" vertex="1" parent="1">
          <mxGeometry x="510.97" y="1190" width="140" height="120" as="geometry" />
        </mxCell>
        <mxCell id="oEE4H29s-iGU_zrN4cX3-8" value="1. Propose service" style="edgeStyle=orthogonalEdgeStyle;rounded=0;orthogonalLoop=1;jettySize=auto;html=1;exitX=0;exitY=0.25;exitDx=0;exitDy=0;entryX=0;entryY=0.5;entryDx=0;entryDy=0;" edge="1" parent="1" source="oEE4H29s-iGU_zrN4cX3-4" target="oEE4H29s-iGU_zrN4cX3-4">
          <mxGeometry x="-0.0162" y="-18" relative="1" as="geometry">
            <Array as="points">
              <mxPoint x="127.97" y="1370" />
              <mxPoint x="127.97" y="1400" />
            </Array>
            <mxPoint as="offset" />
          </mxGeometry>
        </mxCell>
        <mxCell id="oEE4H29s-iGU_zrN4cX3-9" style="edgeStyle=orthogonalEdgeStyle;rounded=0;orthogonalLoop=1;jettySize=auto;html=1;exitX=0.75;exitY=1;exitDx=0;exitDy=0;entryX=0;entryY=0.25;entryDx=0;entryDy=0;startArrow=classic;startFill=1;dashed=1;" edge="1" parent="1" source="oEE4H29s-iGU_zrN4cX3-12" target="oEE4H29s-iGU_zrN4cX3-5">
          <mxGeometry relative="1" as="geometry" />
        </mxCell>
        <mxCell id="oEE4H29s-iGU_zrN4cX3-10" style="edgeStyle=orthogonalEdgeStyle;rounded=0;orthogonalLoop=1;jettySize=auto;html=1;exitX=1;exitY=0.5;exitDx=0;exitDy=0;startArrow=classic;startFill=1;dashed=1;" edge="1" parent="1" source="oEE4H29s-iGU_zrN4cX3-12" target="oEE4H29s-iGU_zrN4cX3-6">
          <mxGeometry relative="1" as="geometry" />
        </mxCell>
        <mxCell id="oEE4H29s-iGU_zrN4cX3-11" style="edgeStyle=orthogonalEdgeStyle;rounded=0;orthogonalLoop=1;jettySize=auto;html=1;exitX=0.75;exitY=0;exitDx=0;exitDy=0;entryX=0;entryY=0.75;entryDx=0;entryDy=0;startArrow=classic;startFill=1;dashed=1;" edge="1" parent="1" source="oEE4H29s-iGU_zrN4cX3-12" target="oEE4H29s-iGU_zrN4cX3-7">
          <mxGeometry relative="1" as="geometry" />
        </mxCell>
        <mxCell id="oEE4H29s-iGU_zrN4cX3-12" value="Central Management" style="rounded=0;whiteSpace=wrap;html=1;fillColor=#fad7ac;strokeColor=#b46504;" vertex="1" parent="1">
          <mxGeometry x="430.97" y="1340" width="80" height="119" as="geometry" />
        </mxCell>
      </root>
    </mxGraphModel>
  </diagram>
</mxfile>
